<mxfile host="app.diagrams.net" modified="2020-06-09T10:24:10.803Z" agent="5.0 (Windows NT 10.0; Win64; x64) AppleWebKit/537.36 (KHTML, like Gecko) Chrome/83.0.4103.97 Safari/537.36" etag="7Ncc9tgB0p7PIuXzeUxo" version="13.1.5" type="github">
  <diagram id="BvV7CMIOSkaQQ8W2picQ" name="Page-1">
    <mxGraphModel dx="1422" dy="762" grid="1" gridSize="10" guides="1" tooltips="1" connect="1" arrows="1" fold="1" page="1" pageScale="1" pageWidth="827" pageHeight="1169" math="0" shadow="0">
      <root>
        <mxCell id="0" />
        <mxCell id="1" parent="0" />
        <mxCell id="2LZ10TSNpUJt7mjccf7d-53" value="" style="rounded=1;whiteSpace=wrap;html=1;fillColor=#dae8fc;strokeColor=#6c8ebf;" vertex="1" parent="1">
          <mxGeometry x="1160" y="100" width="200" height="320" as="geometry" />
        </mxCell>
        <mxCell id="2LZ10TSNpUJt7mjccf7d-29" value="" style="rounded=1;whiteSpace=wrap;html=1;fillColor=#dae8fc;strokeColor=#6c8ebf;" vertex="1" parent="1">
          <mxGeometry x="120" y="40" width="460" height="440" as="geometry" />
        </mxCell>
        <mxCell id="2LZ10TSNpUJt7mjccf7d-3" value="" style="rounded=1;whiteSpace=wrap;html=1;fillColor=#d5e8d4;strokeColor=#82b366;" vertex="1" parent="1">
          <mxGeometry x="140" y="80" width="420" height="180" as="geometry" />
        </mxCell>
        <mxCell id="2LZ10TSNpUJt7mjccf7d-1" value="" style="rounded=1;whiteSpace=wrap;html=1;fillColor=#dae8fc;strokeColor=#6c8ebf;" vertex="1" parent="1">
          <mxGeometry x="120" y="520" width="150" height="130" as="geometry" />
        </mxCell>
        <mxCell id="2LZ10TSNpUJt7mjccf7d-6" value="Pod" style="text;html=1;strokeColor=none;fillColor=none;align=center;verticalAlign=middle;whiteSpace=wrap;rounded=0;" vertex="1" parent="1">
          <mxGeometry x="160" y="90" width="40" height="20" as="geometry" />
        </mxCell>
        <mxCell id="2LZ10TSNpUJt7mjccf7d-7" value="" style="rounded=1;whiteSpace=wrap;html=1;fillColor=#e1d5e7;strokeColor=#9673a6;" vertex="1" parent="1">
          <mxGeometry x="160" y="120" width="190" height="120" as="geometry" />
        </mxCell>
        <mxCell id="2LZ10TSNpUJt7mjccf7d-9" value="&lt;h1&gt;&lt;span style=&quot;font-size: 12px ; font-weight: normal&quot;&gt;Queue 1 send credentials&lt;/span&gt;&lt;br&gt;&lt;/h1&gt;&lt;div&gt;&lt;font style=&quot;font-size: 12px&quot;&gt;Queue 2 receive credentials&lt;/font&gt;&lt;/div&gt;" style="text;html=1;strokeColor=none;fillColor=none;spacing=5;spacingTop=-20;whiteSpace=wrap;overflow=hidden;rounded=0;" vertex="1" parent="1">
          <mxGeometry x="380" y="140" width="160" height="80" as="geometry" />
        </mxCell>
        <mxCell id="2LZ10TSNpUJt7mjccf7d-10" value="&lt;h1&gt;&lt;font style=&quot;font-size: 12px&quot;&gt;&lt;span style=&quot;font-weight: normal&quot;&gt;Queue 1 send credentials&lt;/span&gt;&lt;br&gt;&lt;/font&gt;&lt;/h1&gt;&lt;div&gt;&lt;font style=&quot;font-size: 12px&quot;&gt;Queue 2 receive credentials&lt;/font&gt;&lt;/div&gt;" style="text;html=1;strokeColor=none;fillColor=none;spacing=5;spacingTop=-20;whiteSpace=wrap;overflow=hidden;rounded=0;" vertex="1" parent="1">
          <mxGeometry x="170" y="160" width="160" height="80" as="geometry" />
        </mxCell>
        <mxCell id="2LZ10TSNpUJt7mjccf7d-11" value="Node.js" style="text;html=1;strokeColor=none;fillColor=none;align=center;verticalAlign=middle;whiteSpace=wrap;rounded=0;" vertex="1" parent="1">
          <mxGeometry x="180" y="130" width="40" height="20" as="geometry" />
        </mxCell>
        <mxCell id="2LZ10TSNpUJt7mjccf7d-12" value="Queue 1" style="rounded=1;whiteSpace=wrap;html=1;" vertex="1" parent="1">
          <mxGeometry x="150" y="560" width="100" height="30" as="geometry" />
        </mxCell>
        <mxCell id="2LZ10TSNpUJt7mjccf7d-13" value="Queue 2" style="rounded=1;whiteSpace=wrap;html=1;" vertex="1" parent="1">
          <mxGeometry x="150" y="600" width="100" height="30" as="geometry" />
        </mxCell>
        <mxCell id="2LZ10TSNpUJt7mjccf7d-14" value="SQS" style="text;html=1;strokeColor=none;fillColor=none;align=center;verticalAlign=middle;whiteSpace=wrap;rounded=0;" vertex="1" parent="1">
          <mxGeometry x="140" y="530" width="40" height="20" as="geometry" />
        </mxCell>
        <mxCell id="2LZ10TSNpUJt7mjccf7d-17" value="" style="rounded=1;whiteSpace=wrap;html=1;fillColor=#d5e8d4;strokeColor=#82b366;" vertex="1" parent="1">
          <mxGeometry x="140" y="280" width="420" height="180" as="geometry" />
        </mxCell>
        <mxCell id="2LZ10TSNpUJt7mjccf7d-18" value="Pod" style="text;html=1;strokeColor=none;fillColor=none;align=center;verticalAlign=middle;whiteSpace=wrap;rounded=0;" vertex="1" parent="1">
          <mxGeometry x="160" y="290" width="40" height="20" as="geometry" />
        </mxCell>
        <mxCell id="2LZ10TSNpUJt7mjccf7d-19" value="" style="rounded=1;whiteSpace=wrap;html=1;fillColor=#e1d5e7;strokeColor=#9673a6;" vertex="1" parent="1">
          <mxGeometry x="160" y="320" width="190" height="120" as="geometry" />
        </mxCell>
        <mxCell id="2LZ10TSNpUJt7mjccf7d-20" value="&lt;h1&gt;&lt;span style=&quot;font-size: 12px ; font-weight: normal&quot;&gt;Queue 1 receive credentials&lt;/span&gt;&lt;br&gt;&lt;/h1&gt;&lt;div&gt;&lt;font style=&quot;font-size: 12px&quot;&gt;Queue 2 send credentials&lt;/font&gt;&lt;/div&gt;" style="text;html=1;strokeColor=none;fillColor=none;spacing=5;spacingTop=-20;whiteSpace=wrap;overflow=hidden;rounded=0;" vertex="1" parent="1">
          <mxGeometry x="380" y="340" width="160" height="80" as="geometry" />
        </mxCell>
        <mxCell id="2LZ10TSNpUJt7mjccf7d-21" value="&lt;h1&gt;&lt;font style=&quot;font-size: 12px&quot;&gt;&lt;span style=&quot;font-weight: normal&quot;&gt;Queue 1 receive credentials&lt;/span&gt;&lt;br&gt;&lt;/font&gt;&lt;/h1&gt;&lt;div&gt;&lt;font style=&quot;font-size: 12px&quot;&gt;Queue 2 send credentials&lt;/font&gt;&lt;/div&gt;" style="text;html=1;strokeColor=none;fillColor=none;spacing=5;spacingTop=-20;whiteSpace=wrap;overflow=hidden;rounded=0;" vertex="1" parent="1">
          <mxGeometry x="170" y="360" width="160" height="80" as="geometry" />
        </mxCell>
        <mxCell id="2LZ10TSNpUJt7mjccf7d-22" value=".Net Core" style="text;html=1;strokeColor=none;fillColor=none;align=center;verticalAlign=middle;whiteSpace=wrap;rounded=0;" vertex="1" parent="1">
          <mxGeometry x="180" y="330" width="60" height="20" as="geometry" />
        </mxCell>
        <mxCell id="2LZ10TSNpUJt7mjccf7d-30" value="EKS" style="text;html=1;strokeColor=none;fillColor=none;align=center;verticalAlign=middle;whiteSpace=wrap;rounded=0;" vertex="1" parent="1">
          <mxGeometry x="160" y="50" width="40" height="20" as="geometry" />
        </mxCell>
        <mxCell id="2LZ10TSNpUJt7mjccf7d-31" value="" style="rounded=1;whiteSpace=wrap;html=1;fillColor=#dae8fc;strokeColor=#6c8ebf;" vertex="1" parent="1">
          <mxGeometry x="670" y="30" width="460" height="440" as="geometry" />
        </mxCell>
        <mxCell id="2LZ10TSNpUJt7mjccf7d-32" value="" style="rounded=1;whiteSpace=wrap;html=1;fillColor=#d5e8d4;strokeColor=#82b366;" vertex="1" parent="1">
          <mxGeometry x="690" y="70" width="290" height="180" as="geometry" />
        </mxCell>
        <mxCell id="2LZ10TSNpUJt7mjccf7d-33" value="" style="rounded=1;whiteSpace=wrap;html=1;fillColor=#dae8fc;strokeColor=#6c8ebf;" vertex="1" parent="1">
          <mxGeometry x="670" y="510" width="150" height="130" as="geometry" />
        </mxCell>
        <mxCell id="2LZ10TSNpUJt7mjccf7d-34" value="Pod" style="text;html=1;strokeColor=none;fillColor=none;align=center;verticalAlign=middle;whiteSpace=wrap;rounded=0;" vertex="1" parent="1">
          <mxGeometry x="710" y="80" width="40" height="20" as="geometry" />
        </mxCell>
        <mxCell id="2LZ10TSNpUJt7mjccf7d-35" value="" style="rounded=1;whiteSpace=wrap;html=1;fillColor=#e1d5e7;strokeColor=#9673a6;" vertex="1" parent="1">
          <mxGeometry x="710" y="110" width="190" height="120" as="geometry" />
        </mxCell>
        <mxCell id="2LZ10TSNpUJt7mjccf7d-36" value="&lt;h1&gt;&lt;span style=&quot;font-size: 12px ; font-weight: 400&quot;&gt;Token&lt;/span&gt;&lt;/h1&gt;" style="text;html=1;strokeColor=none;fillColor=none;spacing=5;spacingTop=-20;whiteSpace=wrap;overflow=hidden;rounded=0;" vertex="1" parent="1">
          <mxGeometry x="930" y="130" width="160" height="80" as="geometry" />
        </mxCell>
        <mxCell id="2LZ10TSNpUJt7mjccf7d-38" value="Node.js" style="text;html=1;strokeColor=none;fillColor=none;align=center;verticalAlign=middle;whiteSpace=wrap;rounded=0;" vertex="1" parent="1">
          <mxGeometry x="730" y="120" width="40" height="20" as="geometry" />
        </mxCell>
        <mxCell id="2LZ10TSNpUJt7mjccf7d-39" value="Queue 1" style="rounded=1;whiteSpace=wrap;html=1;" vertex="1" parent="1">
          <mxGeometry x="700" y="550" width="100" height="30" as="geometry" />
        </mxCell>
        <mxCell id="2LZ10TSNpUJt7mjccf7d-40" value="Queue 2" style="rounded=1;whiteSpace=wrap;html=1;" vertex="1" parent="1">
          <mxGeometry x="700" y="590" width="100" height="30" as="geometry" />
        </mxCell>
        <mxCell id="2LZ10TSNpUJt7mjccf7d-41" value="SQS" style="text;html=1;strokeColor=none;fillColor=none;align=center;verticalAlign=middle;whiteSpace=wrap;rounded=0;" vertex="1" parent="1">
          <mxGeometry x="690" y="520" width="40" height="20" as="geometry" />
        </mxCell>
        <mxCell id="2LZ10TSNpUJt7mjccf7d-42" value="" style="rounded=1;whiteSpace=wrap;html=1;fillColor=#d5e8d4;strokeColor=#82b366;" vertex="1" parent="1">
          <mxGeometry x="690" y="270" width="290" height="180" as="geometry" />
        </mxCell>
        <mxCell id="2LZ10TSNpUJt7mjccf7d-43" value="Pod" style="text;html=1;strokeColor=none;fillColor=none;align=center;verticalAlign=middle;whiteSpace=wrap;rounded=0;" vertex="1" parent="1">
          <mxGeometry x="710" y="280" width="40" height="20" as="geometry" />
        </mxCell>
        <mxCell id="2LZ10TSNpUJt7mjccf7d-44" value="" style="rounded=1;whiteSpace=wrap;html=1;fillColor=#e1d5e7;strokeColor=#9673a6;" vertex="1" parent="1">
          <mxGeometry x="710" y="310" width="190" height="120" as="geometry" />
        </mxCell>
        <mxCell id="2LZ10TSNpUJt7mjccf7d-45" value="&lt;h1&gt;&lt;span style=&quot;font-size: 12px ; font-weight: 400&quot;&gt;Token&lt;/span&gt;&lt;/h1&gt;" style="text;html=1;strokeColor=none;fillColor=none;spacing=5;spacingTop=-20;whiteSpace=wrap;overflow=hidden;rounded=0;" vertex="1" parent="1">
          <mxGeometry x="930" y="330" width="160" height="80" as="geometry" />
        </mxCell>
        <mxCell id="2LZ10TSNpUJt7mjccf7d-47" value=".Net Core" style="text;html=1;strokeColor=none;fillColor=none;align=center;verticalAlign=middle;whiteSpace=wrap;rounded=0;" vertex="1" parent="1">
          <mxGeometry x="730" y="320" width="60" height="20" as="geometry" />
        </mxCell>
        <mxCell id="2LZ10TSNpUJt7mjccf7d-48" value="EKS" style="text;html=1;strokeColor=none;fillColor=none;align=center;verticalAlign=middle;whiteSpace=wrap;rounded=0;" vertex="1" parent="1">
          <mxGeometry x="710" y="40" width="40" height="20" as="geometry" />
        </mxCell>
        <mxCell id="2LZ10TSNpUJt7mjccf7d-49" value="Service Account" style="rounded=1;whiteSpace=wrap;html=1;fillColor=#f8cecc;strokeColor=#b85450;" vertex="1" parent="1">
          <mxGeometry x="1000" y="130" width="120" height="60" as="geometry" />
        </mxCell>
        <mxCell id="2LZ10TSNpUJt7mjccf7d-50" value="Service Account" style="rounded=1;whiteSpace=wrap;html=1;fillColor=#f8cecc;strokeColor=#b85450;" vertex="1" parent="1">
          <mxGeometry x="1000" y="340" width="120" height="60" as="geometry" />
        </mxCell>
        <mxCell id="2LZ10TSNpUJt7mjccf7d-52" value="" style="rounded=1;whiteSpace=wrap;html=1;fillColor=#ffe6cc;strokeColor=#d79b00;align=left;" vertex="1" parent="1">
          <mxGeometry x="1181" y="130" width="169" height="100" as="geometry" />
        </mxCell>
        <mxCell id="2LZ10TSNpUJt7mjccf7d-54" value="IAM" style="text;html=1;strokeColor=none;fillColor=none;align=center;verticalAlign=middle;whiteSpace=wrap;rounded=0;" vertex="1" parent="1">
          <mxGeometry x="1181" y="100" width="40" height="20" as="geometry" />
        </mxCell>
        <mxCell id="2LZ10TSNpUJt7mjccf7d-58" value="Trust Policy" style="text;html=1;strokeColor=none;fillColor=none;align=center;verticalAlign=middle;whiteSpace=wrap;rounded=0;" vertex="1" parent="1">
          <mxGeometry x="1190" y="130" width="69" height="20" as="geometry" />
        </mxCell>
        <mxCell id="2LZ10TSNpUJt7mjccf7d-59" value="Queue 1 send permission&lt;br&gt;Queue 2 receive permission" style="text;html=1;strokeColor=none;fillColor=none;align=left;verticalAlign=middle;whiteSpace=wrap;rounded=0;" vertex="1" parent="1">
          <mxGeometry x="1190" y="160" width="170" height="20" as="geometry" />
        </mxCell>
        <mxCell id="2LZ10TSNpUJt7mjccf7d-62" value="" style="rounded=1;whiteSpace=wrap;html=1;fillColor=#ffe6cc;strokeColor=#d79b00;align=left;" vertex="1" parent="1">
          <mxGeometry x="1176" y="300" width="169" height="100" as="geometry" />
        </mxCell>
        <mxCell id="2LZ10TSNpUJt7mjccf7d-63" value="Trust Policy" style="text;html=1;strokeColor=none;fillColor=none;align=center;verticalAlign=middle;whiteSpace=wrap;rounded=0;" vertex="1" parent="1">
          <mxGeometry x="1185" y="300" width="69" height="20" as="geometry" />
        </mxCell>
        <mxCell id="2LZ10TSNpUJt7mjccf7d-64" value="Queue 1 receive permission&lt;br&gt;Queue 2 send permission" style="text;html=1;strokeColor=none;fillColor=none;align=left;verticalAlign=middle;whiteSpace=wrap;rounded=0;" vertex="1" parent="1">
          <mxGeometry x="1185" y="330" width="170" height="20" as="geometry" />
        </mxCell>
        <mxCell id="2LZ10TSNpUJt7mjccf7d-65" value="" style="rounded=1;whiteSpace=wrap;html=1;fillColor=#dae8fc;strokeColor=#6c8ebf;" vertex="1" parent="1">
          <mxGeometry x="830" y="760" width="200" height="320" as="geometry" />
        </mxCell>
        <mxCell id="2LZ10TSNpUJt7mjccf7d-66" value="" style="rounded=1;whiteSpace=wrap;html=1;fillColor=#dae8fc;strokeColor=#6c8ebf;" vertex="1" parent="1">
          <mxGeometry x="69" y="690" width="681" height="440" as="geometry" />
        </mxCell>
        <mxCell id="2LZ10TSNpUJt7mjccf7d-67" value="" style="rounded=1;whiteSpace=wrap;html=1;fillColor=#d5e8d4;strokeColor=#82b366;" vertex="1" parent="1">
          <mxGeometry x="89" y="730" width="290" height="180" as="geometry" />
        </mxCell>
        <mxCell id="2LZ10TSNpUJt7mjccf7d-68" value="" style="rounded=1;whiteSpace=wrap;html=1;fillColor=#dae8fc;strokeColor=#6c8ebf;" vertex="1" parent="1">
          <mxGeometry x="69" y="1170" width="150" height="130" as="geometry" />
        </mxCell>
        <mxCell id="2LZ10TSNpUJt7mjccf7d-69" value="Pod" style="text;html=1;strokeColor=none;fillColor=none;align=center;verticalAlign=middle;whiteSpace=wrap;rounded=0;" vertex="1" parent="1">
          <mxGeometry x="109" y="740" width="40" height="20" as="geometry" />
        </mxCell>
        <mxCell id="2LZ10TSNpUJt7mjccf7d-70" value="" style="rounded=1;whiteSpace=wrap;html=1;fillColor=#e1d5e7;strokeColor=#9673a6;" vertex="1" parent="1">
          <mxGeometry x="109" y="770" width="190" height="120" as="geometry" />
        </mxCell>
        <mxCell id="2LZ10TSNpUJt7mjccf7d-71" value="&lt;h1&gt;&lt;span style=&quot;font-size: 12px ; font-weight: 400&quot;&gt;Token&lt;/span&gt;&lt;/h1&gt;" style="text;html=1;strokeColor=none;fillColor=none;spacing=5;spacingTop=-20;whiteSpace=wrap;overflow=hidden;rounded=0;" vertex="1" parent="1">
          <mxGeometry x="329" y="790" width="41" height="80" as="geometry" />
        </mxCell>
        <mxCell id="2LZ10TSNpUJt7mjccf7d-72" value="Node.js" style="text;html=1;strokeColor=none;fillColor=none;align=center;verticalAlign=middle;whiteSpace=wrap;rounded=0;" vertex="1" parent="1">
          <mxGeometry x="129" y="780" width="40" height="20" as="geometry" />
        </mxCell>
        <mxCell id="2LZ10TSNpUJt7mjccf7d-73" value="Queue 1" style="rounded=1;whiteSpace=wrap;html=1;" vertex="1" parent="1">
          <mxGeometry x="99" y="1210" width="100" height="30" as="geometry" />
        </mxCell>
        <mxCell id="2LZ10TSNpUJt7mjccf7d-74" value="Queue 2" style="rounded=1;whiteSpace=wrap;html=1;" vertex="1" parent="1">
          <mxGeometry x="99" y="1250" width="100" height="30" as="geometry" />
        </mxCell>
        <mxCell id="2LZ10TSNpUJt7mjccf7d-75" value="Azure Service Bus" style="text;html=1;strokeColor=none;fillColor=none;align=center;verticalAlign=middle;whiteSpace=wrap;rounded=0;" vertex="1" parent="1">
          <mxGeometry x="89" y="1180" width="101" height="20" as="geometry" />
        </mxCell>
        <mxCell id="2LZ10TSNpUJt7mjccf7d-76" value="" style="rounded=1;whiteSpace=wrap;html=1;fillColor=#d5e8d4;strokeColor=#82b366;" vertex="1" parent="1">
          <mxGeometry x="89" y="930" width="290" height="180" as="geometry" />
        </mxCell>
        <mxCell id="2LZ10TSNpUJt7mjccf7d-77" value="Pod" style="text;html=1;strokeColor=none;fillColor=none;align=center;verticalAlign=middle;whiteSpace=wrap;rounded=0;" vertex="1" parent="1">
          <mxGeometry x="109" y="940" width="40" height="20" as="geometry" />
        </mxCell>
        <mxCell id="2LZ10TSNpUJt7mjccf7d-78" value="" style="rounded=1;whiteSpace=wrap;html=1;fillColor=#e1d5e7;strokeColor=#9673a6;" vertex="1" parent="1">
          <mxGeometry x="109" y="970" width="190" height="120" as="geometry" />
        </mxCell>
        <mxCell id="2LZ10TSNpUJt7mjccf7d-79" value="&lt;h1&gt;&lt;span style=&quot;font-size: 12px ; font-weight: 400&quot;&gt;Token&lt;/span&gt;&lt;/h1&gt;" style="text;html=1;strokeColor=none;fillColor=none;spacing=5;spacingTop=-20;whiteSpace=wrap;overflow=hidden;rounded=0;" vertex="1" parent="1">
          <mxGeometry x="329" y="990" width="41" height="80" as="geometry" />
        </mxCell>
        <mxCell id="2LZ10TSNpUJt7mjccf7d-80" value=".Net Core" style="text;html=1;strokeColor=none;fillColor=none;align=center;verticalAlign=middle;whiteSpace=wrap;rounded=0;" vertex="1" parent="1">
          <mxGeometry x="129" y="980" width="60" height="20" as="geometry" />
        </mxCell>
        <mxCell id="2LZ10TSNpUJt7mjccf7d-81" value="AKS" style="text;html=1;strokeColor=none;fillColor=none;align=center;verticalAlign=middle;whiteSpace=wrap;rounded=0;" vertex="1" parent="1">
          <mxGeometry x="109" y="700" width="40" height="20" as="geometry" />
        </mxCell>
        <mxCell id="2LZ10TSNpUJt7mjccf7d-84" value="" style="rounded=1;whiteSpace=wrap;html=1;fillColor=#ffe6cc;strokeColor=#d79b00;align=left;" vertex="1" parent="1">
          <mxGeometry x="851" y="790" width="169" height="100" as="geometry" />
        </mxCell>
        <mxCell id="2LZ10TSNpUJt7mjccf7d-85" value="Azure Active Directory" style="text;html=1;strokeColor=none;fillColor=none;align=center;verticalAlign=middle;whiteSpace=wrap;rounded=0;" vertex="1" parent="1">
          <mxGeometry x="846" y="760" width="124" height="20" as="geometry" />
        </mxCell>
        <mxCell id="2LZ10TSNpUJt7mjccf7d-86" value="Roles and scopes" style="text;html=1;strokeColor=none;fillColor=none;align=center;verticalAlign=middle;whiteSpace=wrap;rounded=0;" vertex="1" parent="1">
          <mxGeometry x="860" y="790" width="100" height="20" as="geometry" />
        </mxCell>
        <mxCell id="2LZ10TSNpUJt7mjccf7d-87" value="Queue 1 send permission&lt;br&gt;Queue 2 receive permission" style="text;html=1;strokeColor=none;fillColor=none;align=left;verticalAlign=middle;whiteSpace=wrap;rounded=0;" vertex="1" parent="1">
          <mxGeometry x="860" y="820" width="170" height="20" as="geometry" />
        </mxCell>
        <mxCell id="2LZ10TSNpUJt7mjccf7d-88" value="" style="rounded=1;whiteSpace=wrap;html=1;fillColor=#ffe6cc;strokeColor=#d79b00;align=left;" vertex="1" parent="1">
          <mxGeometry x="846" y="960" width="169" height="100" as="geometry" />
        </mxCell>
        <mxCell id="2LZ10TSNpUJt7mjccf7d-89" value="Roles and scopes" style="text;html=1;strokeColor=none;fillColor=none;align=center;verticalAlign=middle;whiteSpace=wrap;rounded=0;" vertex="1" parent="1">
          <mxGeometry x="855" y="960" width="105" height="20" as="geometry" />
        </mxCell>
        <mxCell id="2LZ10TSNpUJt7mjccf7d-90" value="Queue 1 receive permission&lt;br&gt;Queue 2 send permission" style="text;html=1;strokeColor=none;fillColor=none;align=left;verticalAlign=middle;whiteSpace=wrap;rounded=0;" vertex="1" parent="1">
          <mxGeometry x="855" y="990" width="170" height="20" as="geometry" />
        </mxCell>
        <mxCell id="2LZ10TSNpUJt7mjccf7d-91" value="Node Managed Identity Server (NMI)" style="rounded=1;whiteSpace=wrap;html=1;align=center;fillColor=#f8cecc;strokeColor=#b85450;" vertex="1" parent="1">
          <mxGeometry x="600" y="830" width="120" height="60" as="geometry" />
        </mxCell>
        <mxCell id="2LZ10TSNpUJt7mjccf7d-92" value="Managed Identity Controller (MIC)" style="rounded=1;whiteSpace=wrap;html=1;align=center;fillColor=#f8cecc;strokeColor=#b85450;" vertex="1" parent="1">
          <mxGeometry x="600" y="920" width="120" height="60" as="geometry" />
        </mxCell>
        <mxCell id="2LZ10TSNpUJt7mjccf7d-93" value="Azure Identity" style="rounded=1;whiteSpace=wrap;html=1;align=center;fillColor=#647687;strokeColor=#314354;fontColor=#ffffff;" vertex="1" parent="1">
          <mxGeometry x="414" y="970" width="120" height="40" as="geometry" />
        </mxCell>
        <mxCell id="2LZ10TSNpUJt7mjccf7d-94" value="Azure Identity Binding" style="rounded=1;whiteSpace=wrap;html=1;align=center;fillColor=#647687;strokeColor=#314354;fontColor=#ffffff;" vertex="1" parent="1">
          <mxGeometry x="414" y="1030" width="120" height="40" as="geometry" />
        </mxCell>
        <mxCell id="2LZ10TSNpUJt7mjccf7d-95" value="Azure Identity" style="rounded=1;whiteSpace=wrap;html=1;align=center;fillColor=#647687;strokeColor=#314354;fontColor=#ffffff;" vertex="1" parent="1">
          <mxGeometry x="414" y="770" width="120" height="40" as="geometry" />
        </mxCell>
        <mxCell id="2LZ10TSNpUJt7mjccf7d-96" value="Azure Identity Binding" style="rounded=1;whiteSpace=wrap;html=1;align=center;fillColor=#647687;strokeColor=#314354;fontColor=#ffffff;" vertex="1" parent="1">
          <mxGeometry x="414" y="830" width="120" height="40" as="geometry" />
        </mxCell>
      </root>
    </mxGraphModel>
  </diagram>
</mxfile>
